<?xml version="1.0" standalone="no"?>
<!DOCTYPE svg PUBLIC "-//W3C//DTD SVG 20010904//EN"
 "http://www.w3.org/TR/2001/REC-SVG-20010904/DTD/svg10.dtd">
<svg version="1.0" xmlns="http://www.w3.org/2000/svg"
 width="260.000000pt" height="260.000000pt" viewBox="0 0 260.000000 260.000000"
 preserveAspectRatio="xMidYMid meet">
<metadata>
Created by potrace 1.11, written by Peter Selinger 2001-2013
</metadata>
<g transform="translate(0.000000,260.000000) scale(0.100000,-0.100000)"
fill="#000000" stroke="none">
<path d="M1808 2040 c-120 -25 -218 -78 -273 -147 -56 -72 -75 -136 -71 -237
5 -128 50 -207 154 -273 77 -50 161 -78 392 -134 281 -69 343 -99 382 -187 23
-52 21 -138 -5 -189 -27 -52 -95 -102 -172 -126 -101 -32 -309 -32 -411 0 -99
32 -156 77 -196 161 l-33 68 -51 -12 c-29 -6 -68 -14 -88 -18 l-36 -7 0 546 0
545 -128 0 -127 0 -193 -512 c-107 -282 -205 -551 -219 -598 -26 -87 -43 -120
-43 -84 0 37 -46 175 -144 434 -53 140 -100 262 -105 270 -4 8 -47 122 -97
252 l-89 238 -127 0 -128 0 0 -720 0 -720 86 0 85 0 -3 625 -3 625 51 -153
c42 -129 124 -345 299 -797 18 -47 47 -123 65 -170 51 -139 44 -130 120 -130
64 0 68 1 78 27 18 45 249 654 314 828 50 134 85 238 126 373 4 12 6 -259 4
-603 l-3 -625 90 0 91 0 0 152 0 151 30 -59 c57 -116 164 -194 317 -235 112
-30 353 -35 478 -8 164 34 292 118 347 228 20 41 23 60 23 176 0 123 -1 132
-27 176 -66 112 -174 170 -442 235 -267 65 -322 82 -374 114 -61 37 -91 78
-99 135 -23 168 117 259 387 251 180 -5 278 -54 330 -164 l23 -49 41 9 c23 4
59 10 81 13 67 10 66 9 49 57 -70 198 -233 284 -539 285 -87 1 -159 -5 -217
-17z"/>
</g>
</svg>
